<svg xmlns="http://www.w3.org/2000/svg" fill="#fff" viewBox="0 0 475 475" class="svg-icon the-body__logo" data-v-1eb16b7c=""><path d="M47.2 201.96v65.92H29.28v-65.92H47.2zM28 187.24c0-5.632 4.608-10.24 10.24-10.24 5.632 0 10.24 4.608 10.24 10.24 0 5.632-4.608 10.24-10.24 10.24-5.632 0-10.24-4.608-10.24-10.24zM385.695 304V201.96h17.92v26.88l23.68-26.88h21.12l-25.088 25.984 26.368 40.576h-21.888l-16.896-27.776-7.296 7.552V304h-17.92zm-330.12-23.04h17.92s.64 9.6 13.44 9.6l-6.24 13.092c-24.57-2.883-25.12-22.692-25.12-22.692z"></path><path fill-rule="evenodd" d="M102.295 262.12v-3.2h-.64s-5.76 8.96-19.84 8.96c-19.2 0-28.8-16.64-28.8-33.92s9.6-33.92 28.8-33.92c14.72 0 20.48 10.88 20.48 10.88h.64v-8.96h17.28V264s-1.811-.712-3.02-1c-1.532-.364-2.427-.564-4-.5-1.167.048-1.825.21-2.944.486l-.056.014c-1.199.296-3 1-3 1s-1.193-.666-2-1c-1.094-.452-2.9-.88-2.9-.88zm-15.36-48.64c10.88 0 16 9.728 16 20.48s-5.12 20.48-16 20.48c-10.88 0-16-9.728-16-20.48s5.12-20.48 16-20.48zm39.08 21.76c0-19.456 12.032-35.2 33.92-35.2s33.92 15.744 33.92 35.2c0 11.285-4.048 21.321-11.718 27.76 0 0-5.897-.532-9.442.5-3.187.928-7.5 4-7.5 4s-1.5-3.555-8.5-4.5c-3.989-.539-10 2.5-10 2.5s-2.306-1.575-4-2c-1.705-.428-4.5-.121-4.5-.121-7.97-6.42-12.18-16.63-12.18-28.139zm33.92 21.76c-11.392 0-16-9.728-16-21.76 0-12.032 4.608-21.76 16-21.76s16 9.728 16 21.76c0 12.032-4.608 21.76-16 21.76z" clip-rule="evenodd"></path><path d="M292.796 201.995h17.92V262.5s-4.128.107-6.521 1c-1.979.738-4.5 2.5-4.5 2.5s-1.396-1.414-2.5-2c-1.556-.826-4.399-1-4.399-1v-61.005zm24.399-.035h17.28v10.88h.64s5.76-12.8 20.48-12.8c18.56 0 23.68 12.16 23.68 27.52v40.96h-17.92V231.4c0-11.52-3.2-16.64-11.52-16.64-9.6 0-14.72 5.76-14.72 19.2l.08 31.54-1.5 1s-3.5-3.5-8-3.5-8.5 2.5-8.5 2.5v-63.54zM199.695 263s3.104-.506 5 0c1.858.495 4.5 2.5 4.5 2.5s2.325-1.505 4-2c1.651-.488 4.904-.5 4.904-.5v-29.517c0-13.267 5.171-18.952 14.867-18.952 3.887 0 5.022.011 8.034.969 2.496.794 4 1.5 6 3l5-15c-2.5-1.5-5.919-3.5-13.216-3.5-14.868 0-20.685 12.635-20.685 12.635h-.646v-10.74h-17.758V263z"></path><path fill="url(#logo_svg__a)" d="M132.763 285.636c.641 0 1.134.296 1.48.888.394.592.592 1.406.592 2.442 0 1.973-.469 3.503-1.406 4.588-2.122 2.615-4.416 4.761-6.882 6.438-2.418 1.677-5.18 2.516-8.288 2.516-2.615 0-4.736-.937-6.364-2.812-2.812 1.825-5.748 2.763-8.806 2.812-.642 9.521-2.097 17.464-4.366 23.828-2.27 6.413-5.6 9.62-9.99 9.62-2.664 0-4.638-.962-5.92-2.886-1.283-1.924-1.924-4.588-1.924-7.992 0-4.835 1.11-10.483 3.33-16.946 2.22-6.413 5.648-13.493 10.286-21.238 0-7.203-.05-12.21-.148-15.022-.05-1.431.518-2.565 1.702-3.404s2.664-1.258 4.44-1.258c1.036 0 1.776.222 2.22.666.493.395.764 1.209.814 2.442 0 1.233.024 2.146.074 2.738 1.578-1.973 3.132-3.379 4.662-4.218 1.529-.888 3.157-1.332 4.884-1.332 2.762 0 5.007 1.11 6.734 3.33 1.776 2.22 2.664 5.131 2.664 8.732 0 2.615-.42 5.155-1.258 7.622a24.905 24.905 0 01-3.478 6.734c1.036.296 1.899.444 2.59.444 1.628 0 3.182-.592 4.662-1.776 1.48-1.184 3.379-3.157 5.698-5.92.592-.691 1.258-1.036 1.998-1.036zm-29.304 9.768c1.776-.395 3.404-1.357 4.884-2.886 1.529-1.579 2.738-3.503 3.626-5.772a20.107 20.107 0 001.332-7.252c0-1.48-.296-2.59-.888-3.33-.592-.789-1.382-1.184-2.368-1.184-1.776 0-3.922 1.875-6.438 5.624-.05 2.171-.074 5.353-.074 9.546 0 2.269-.025 4.021-.074 5.254zm-14.134 33.3c1.332 0 2.442-2.911 3.33-8.732.888-5.772 1.455-12.975 1.702-21.608-2.122 4.933-3.799 9.645-5.032 14.134-1.234 4.489-1.85 8.263-1.85 11.322 0 1.579.197 2.787.592 3.626.345.839.764 1.258 1.258 1.258z"></path><path fill="url(#logo_svg__b)" d="M134.128 302.508c-1.875 0-3.207-.987-3.996-2.96-.74-1.973-1.11-5.131-1.11-9.472 0-6.413.912-12.506 2.738-18.278.444-1.431 1.159-2.467 2.146-3.108 1.036-.691 2.466-1.036 4.292-1.036.986 0 1.677.123 2.072.37.394.247.592.715.592 1.406 0 .789-.37 2.565-1.11 5.328-.494 1.973-.888 3.7-1.184 5.18-.296 1.48-.543 3.305-.74 5.476 1.628-4.243 3.453-7.696 5.476-10.36 2.022-2.664 3.996-4.563 5.92-5.698 1.973-1.135 3.774-1.702 5.402-1.702 3.206 0 4.81 1.603 4.81 4.81 0 .641-.222 2.195-.666 4.662-.395 1.973-.592 3.207-.592 3.7 0 1.727.616 2.59 1.85 2.59 1.381 0 3.157-1.085 5.328-3.256.641-.641 1.307-.962 1.998-.962.641 0 1.134.296 1.48.888.394.543.592 1.283.592 2.22 0 1.825-.494 3.256-1.48 4.292-1.382 1.431-3.01 2.664-4.884 3.7a12.108 12.108 0 01-5.846 1.48c-2.615 0-4.613-.666-5.994-1.998-1.332-1.332-1.998-3.133-1.998-5.402 0-.74.074-1.48.222-2.22.098-.987.148-1.653.148-1.998 0-.789-.272-1.184-.814-1.184-.74 0-1.727.839-2.96 2.516-1.184 1.628-2.368 3.799-3.552 6.512a53.155 53.155 0 00-2.886 8.584c-.543 2.319-1.184 3.897-1.924 4.736-.691.789-1.801 1.184-3.33 1.184z"></path><path fill="url(#logo_svg__c)" d="M195.553 285.636c.642 0 1.135.296 1.48.888.395.592.592 1.406.592 2.442 0 1.973-.468 3.503-1.406 4.588-1.825 2.22-4.415 4.267-7.77 6.142a21.244 21.244 0 01-10.656 2.812c-5.18 0-9.2-1.406-12.062-4.218-2.861-2.812-4.292-6.66-4.292-11.544 0-3.404.716-6.561 2.146-9.472 1.431-2.96 3.404-5.303 5.92-7.03 2.566-1.727 5.452-2.59 8.658-2.59 2.862 0 5.156.863 6.882 2.59 1.727 1.677 2.59 3.971 2.59 6.882 0 3.404-1.233 6.339-3.7 8.806-2.417 2.417-6.536 4.341-12.358 5.772 1.234 2.269 3.577 3.404 7.03 3.404 2.22 0 4.736-.765 7.548-2.294a25.384 25.384 0 007.4-6.142c.592-.691 1.258-1.036 1.998-1.036zm-18.648-10.73c-1.825 0-3.379 1.061-4.662 3.182-1.233 2.121-1.85 4.687-1.85 7.696v.148c2.911-.691 5.205-1.727 6.882-3.108 1.678-1.381 2.516-2.985 2.516-4.81 0-.937-.271-1.677-.814-2.22-.493-.592-1.184-.888-2.072-.888z"></path><path fill="url(#logo_svg__d)" d="M196.854 302.508c-1.874 0-3.206-.987-3.996-2.96-.74-1.973-1.11-5.131-1.11-9.472 0-6.413.913-12.506 2.738-18.278.444-1.431 1.16-2.467 2.146-3.108 1.036-.691 2.467-1.036 4.292-1.036.987 0 1.678.123 2.072.37.395.247.592.715.592 1.406 0 .789-.37 2.565-1.11 5.328a113.89 113.89 0 00-1.184 5.18c-.296 1.431-.542 3.231-.74 5.402 1.332-3.848 2.911-7.104 4.736-9.768 1.875-2.664 3.774-4.637 5.698-5.92 1.974-1.332 3.824-1.998 5.55-1.998 1.727 0 2.936.395 3.626 1.184.74.789 1.11 1.998 1.11 3.626 0 1.579-.468 4.44-1.406 8.584-.394 1.776-.666 3.108-.814 3.996 2.467-6.068 5.205-10.483 8.214-13.246 3.01-2.763 5.822-4.144 8.436-4.144 3.207 0 4.81 1.603 4.81 4.81 0 1.924-.542 5.402-1.628 10.434-.937 4.292-1.406 7.129-1.406 8.51 0 1.973.716 2.96 2.146 2.96.987 0 2.146-.592 3.478-1.776 1.382-1.233 3.207-3.207 5.476-5.92.592-.691 1.258-1.036 1.998-1.036.642 0 1.135.296 1.48.888.395.592.592 1.406.592 2.442 0 1.973-.468 3.503-1.406 4.588-2.121 2.615-4.415 4.761-6.882 6.438-2.417 1.677-5.18 2.516-8.288 2.516-2.516 0-4.415-.715-5.698-2.146-1.282-1.48-1.924-3.601-1.924-6.364 0-1.381.346-3.848 1.036-7.4.642-3.108.962-5.254.962-6.438 0-.789-.271-1.184-.814-1.184-.641 0-1.554.839-2.738 2.516-1.184 1.628-2.368 3.799-3.552 6.512a53.155 53.155 0 00-2.886 8.584c-.542 2.368-1.184 3.947-1.924 4.736-.69.789-1.825 1.184-3.404 1.184-1.628 0-2.861-.765-3.7-2.294-.789-1.579-1.184-3.478-1.184-5.698 0-1.875.247-4.588.74-8.14.395-3.157.592-5.229.592-6.216 0-.789-.271-1.184-.814-1.184-.74 0-1.677.888-2.812 2.664-1.134 1.776-2.244 4.045-3.33 6.808a69.733 69.733 0 00-2.516 8.14c-.542 2.319-1.184 3.897-1.924 4.736-.69.789-1.8 1.184-3.33 1.184z"></path><path fill="url(#logo_svg__e)" d="M287.892 152.544c-2.072 0-3.626-.469-4.662-1.406-1.036-.987-1.554-2.343-1.554-4.07 0-1.727.666-3.157 1.998-4.292 1.381-1.184 3.083-1.776 5.106-1.776 1.825 0 3.305.444 4.44 1.332 1.134.888 1.702 2.146 1.702 3.774 0 1.973-.642 3.552-1.924 4.736-1.283 1.135-2.985 1.702-5.106 1.702zm-32.123 149.964c-3.207 0-5.55-1.135-7.03-3.404-1.431-2.269-2.146-5.279-2.146-9.028 0-2.22.271-5.057.814-8.51.592-3.503 31.679-117.775 32.567-120.784.444-1.579 1.036-2.664 1.776-3.256.74-.592 1.924-.888 3.552-.888 2.516 0 3.774.839 3.774 2.516 0 1.233-30.816 115.111-31.753 119.6-1.184 5.427-1.776 9.102-1.776 11.026 0 1.48.197 2.615.592 3.404.394.789 1.06 1.184 1.998 1.184.888 0 1.998-.617 3.33-1.85s3.108-3.182 5.328-5.846c.592-.691 1.258-1.036 1.998-1.036.641 0 1.134.296 1.48.888.394.592.592 1.406.592 2.442 0 1.973-.469 3.503-1.406 4.588-4.884 5.969-9.448 8.954-13.69 8.954z"></path><path fill="url(#logo_svg__f)" d="M272.426 302.508c-2.22 0-4.046-1.011-5.476-3.034-1.382-2.072-2.072-4.637-2.072-7.696 0-3.7.246-7.079.74-10.138.493-3.108 1.307-6.389 2.442-9.842.493-1.48 1.184-2.541 2.072-3.182.888-.641 2.294-.962 4.218-.962 1.085 0 1.825.173 2.22.518.444.345.666.863.666 1.554 0 .395-.272 1.727-.814 3.996a76.801 76.801 0 00-1.184 4.958c-.987 5.18-1.48 8.633-1.48 10.36 0 1.036.123 1.776.37 2.22.246.395.641.592 1.184.592.74 0 1.652-.74 2.738-2.22 1.134-1.48 2.318-3.725 3.552-6.734 1.282-3.009 2.516-6.709 3.7-11.1.394-1.48.986-2.541 1.776-3.182.838-.641 2.072-.962 3.7-.962 1.134 0 1.924.148 2.368.444.444.247.666.74.666 1.48 0 1.233-.617 4.613-1.85 10.138-1.382 6.315-2.072 10.212-2.072 11.692 0 .937.197 1.677.592 2.22.394.493.912.74 1.554.74.986 0 2.146-.592 3.478-1.776 1.381-1.233 3.206-3.207 5.476-5.92.592-.691 1.258-1.036 1.998-1.036.641 0 1.134.296 1.48.888.394.592.592 1.406.592 2.442 0 1.973-.469 3.503-1.406 4.588-2.122 2.615-4.416 4.761-6.882 6.438-2.418 1.677-5.18 2.516-8.288 2.516-2.368 0-4.12-.913-5.254-2.738-1.086-1.825-1.628-4.391-1.628-7.696-.839 3.355-2.097 5.945-3.774 7.77-1.678 1.776-3.478 2.664-5.402 2.664z"></path><path fill="url(#logo_svg__g)" d="M304.313 302.508c-1.874 0-3.206-.987-3.996-2.96-.74-1.973-1.11-5.131-1.11-9.472 0-6.413.913-12.506 2.738-18.278.444-1.431 1.16-2.467 2.146-3.108 1.036-.691 2.467-1.036 4.292-1.036.987 0 1.678.123 2.072.37.395.247.592.715.592 1.406 0 .789-.37 2.565-1.11 5.328a113.89 113.89 0 00-1.184 5.18c-.296 1.431-.542 3.231-.74 5.402 1.332-3.848 2.911-7.104 4.736-9.768 1.875-2.664 3.774-4.637 5.698-5.92 1.974-1.332 3.824-1.998 5.55-1.998 1.727 0 2.936.395 3.626 1.184.74.789 1.11 1.998 1.11 3.626 0 1.579-.468 4.44-1.406 8.584-.394 1.776-.666 3.108-.814 3.996 1.628-4.144 3.429-7.523 5.402-10.138 2.023-2.615 3.996-4.465 5.92-5.55 1.924-1.135 3.7-1.702 5.328-1.702 1.579 0 2.763.419 3.552 1.258.839.789 1.258 1.973 1.258 3.552 0 1.283-.271 3.7-.814 7.252a161.687 161.687 0 00-1.184 8.584c-.296 2.664-.444 5.649-.444 8.954 0 1.875-.394 3.231-1.184 4.07-.74.789-1.973 1.184-3.7 1.184-1.628 0-2.812-.419-3.552-1.258-.74-.839-1.11-2.097-1.11-3.774 0-1.973.346-5.229 1.036-9.768.592-3.947.888-6.463.888-7.548 0-.789-.271-1.184-.814-1.184-.641 0-1.554.839-2.738 2.516-1.184 1.628-2.368 3.799-3.552 6.512a53.155 53.155 0 00-2.886 8.584c-.542 2.368-1.184 3.947-1.924 4.736-.69.789-1.825 1.184-3.404 1.184-1.628 0-2.861-.765-3.7-2.294-.789-1.579-1.184-3.478-1.184-5.698 0-1.875.247-4.588.74-8.14.395-3.157.592-5.229.592-6.216 0-.789-.271-1.184-.814-1.184-.74 0-1.677.888-2.812 2.664-1.134 1.776-2.244 4.045-3.33 6.808a69.733 69.733 0 00-2.516 8.14c-.542 2.319-1.184 3.897-1.924 4.736-.69.789-1.8 1.184-3.33 1.184z"></path><defs><linearGradient id="logo_svg__a" x1="371.972" x2="20.984" y1="226.721" y2="327.721" gradientUnits="userSpaceOnUse"><stop stop-color="#DC5A5A"></stop><stop offset=".245" stop-color="#FFD15A"></stop><stop offset=".479" stop-color="#7590F1"></stop><stop offset=".745" stop-color="#6BF45F"></stop><stop offset="1" stop-color="#CB24BA"></stop></linearGradient><linearGradient id="logo_svg__b" x1="371.972" x2="20.984" y1="226.721" y2="327.721" gradientUnits="userSpaceOnUse"><stop stop-color="#DC5A5A"></stop><stop offset=".245" stop-color="#FFD15A"></stop><stop offset=".479" stop-color="#7590F1"></stop><stop offset=".745" stop-color="#6BF45F"></stop><stop offset="1" stop-color="#CB24BA"></stop></linearGradient><linearGradient id="logo_svg__c" x1="371.972" x2="20.984" y1="226.721" y2="327.721" gradientUnits="userSpaceOnUse"><stop stop-color="#DC5A5A"></stop><stop offset=".245" stop-color="#FFD15A"></stop><stop offset=".479" stop-color="#7590F1"></stop><stop offset=".745" stop-color="#6BF45F"></stop><stop offset="1" stop-color="#CB24BA"></stop></linearGradient><linearGradient id="logo_svg__d" x1="371.972" x2="20.984" y1="226.721" y2="327.721" gradientUnits="userSpaceOnUse"><stop stop-color="#DC5A5A"></stop><stop offset=".245" stop-color="#FFD15A"></stop><stop offset=".479" stop-color="#7590F1"></stop><stop offset=".745" stop-color="#6BF45F"></stop><stop offset="1" stop-color="#CB24BA"></stop></linearGradient><linearGradient id="logo_svg__e" x1="371.972" x2="20.984" y1="226.721" y2="327.721" gradientUnits="userSpaceOnUse"><stop stop-color="#DC5A5A"></stop><stop offset=".245" stop-color="#FFD15A"></stop><stop offset=".479" stop-color="#7590F1"></stop><stop offset=".745" stop-color="#6BF45F"></stop><stop offset="1" stop-color="#CB24BA"></stop></linearGradient><linearGradient id="logo_svg__f" x1="371.972" x2="20.984" y1="226.721" y2="327.721" gradientUnits="userSpaceOnUse"><stop stop-color="#DC5A5A"></stop><stop offset=".245" stop-color="#FFD15A"></stop><stop offset=".479" stop-color="#7590F1"></stop><stop offset=".745" stop-color="#6BF45F"></stop><stop offset="1" stop-color="#CB24BA"></stop></linearGradient><linearGradient id="logo_svg__g" x1="371.972" x2="20.984" y1="226.721" y2="327.721" gradientUnits="userSpaceOnUse"><stop stop-color="#DC5A5A"></stop><stop offset=".245" stop-color="#FFD15A"></stop><stop offset=".479" stop-color="#7590F1"></stop><stop offset=".745" stop-color="#6BF45F"></stop><stop offset="1" stop-color="#CB24BA"></stop></linearGradient></defs></svg>